<mxfile host="Electron" agent="Mozilla/5.0 (Windows NT 10.0; Win64; x64) AppleWebKit/537.36 (KHTML, like Gecko) draw.io/24.7.17 Chrome/128.0.6613.36 Electron/32.0.1 Safari/537.36" version="24.7.17">
  <diagram id="O3qtBx4zgoudDYwL3oXA" name="Page-2">
    <mxGraphModel dx="3440" dy="2615" grid="1" gridSize="10" guides="1" tooltips="1" connect="1" arrows="1" fold="1" page="1" pageScale="1" pageWidth="850" pageHeight="1100" math="0" shadow="0">
      <root>
        <mxCell id="0" />
        <mxCell id="1" parent="0" />
        <mxCell id="olWBgKrgr_6ajbvYRlf9-7" value="" style="edgeStyle=orthogonalEdgeStyle;rounded=0;orthogonalLoop=1;jettySize=auto;html=1;" parent="1" source="olWBgKrgr_6ajbvYRlf9-1" target="olWBgKrgr_6ajbvYRlf9-6" edge="1">
          <mxGeometry relative="1" as="geometry" />
        </mxCell>
        <mxCell id="olWBgKrgr_6ajbvYRlf9-1" value="STARS" style="ellipse;whiteSpace=wrap;html=1;" parent="1" vertex="1">
          <mxGeometry y="-80" width="120" height="80" as="geometry" />
        </mxCell>
        <mxCell id="olWBgKrgr_6ajbvYRlf9-13" value="" style="edgeStyle=orthogonalEdgeStyle;rounded=0;orthogonalLoop=1;jettySize=auto;html=1;" parent="1" source="olWBgKrgr_6ajbvYRlf9-6" target="olWBgKrgr_6ajbvYRlf9-12" edge="1">
          <mxGeometry relative="1" as="geometry" />
        </mxCell>
        <mxCell id="olWBgKrgr_6ajbvYRlf9-6" value="&quot;selamat datang&lt;div&gt;di web jkt48&quot;&lt;/div&gt;" style="shape=parallelogram;perimeter=parallelogramPerimeter;whiteSpace=wrap;html=1;fixedSize=1;" parent="1" vertex="1">
          <mxGeometry y="40" width="120" height="60" as="geometry" />
        </mxCell>
        <mxCell id="olWBgKrgr_6ajbvYRlf9-15" value="false" style="edgeStyle=orthogonalEdgeStyle;rounded=0;orthogonalLoop=1;jettySize=auto;html=1;" parent="1" source="olWBgKrgr_6ajbvYRlf9-12" target="olWBgKrgr_6ajbvYRlf9-14" edge="1">
          <mxGeometry relative="1" as="geometry" />
        </mxCell>
        <mxCell id="oDXxkfqGSKGKiWghNTV8-5" value="true" style="edgeStyle=orthogonalEdgeStyle;rounded=0;orthogonalLoop=1;jettySize=auto;html=1;" edge="1" parent="1" source="olWBgKrgr_6ajbvYRlf9-12" target="oDXxkfqGSKGKiWghNTV8-3">
          <mxGeometry relative="1" as="geometry" />
        </mxCell>
        <mxCell id="olWBgKrgr_6ajbvYRlf9-12" value="Registrasi" style="rhombus;whiteSpace=wrap;html=1;" parent="1" vertex="1">
          <mxGeometry x="20" y="140" width="80" height="80" as="geometry" />
        </mxCell>
        <mxCell id="olWBgKrgr_6ajbvYRlf9-17" value="false" style="edgeStyle=orthogonalEdgeStyle;rounded=0;orthogonalLoop=1;jettySize=auto;html=1;" parent="1" source="olWBgKrgr_6ajbvYRlf9-14" target="olWBgKrgr_6ajbvYRlf9-16" edge="1">
          <mxGeometry relative="1" as="geometry" />
        </mxCell>
        <mxCell id="oDXxkfqGSKGKiWghNTV8-17" value="false" style="edgeStyle=orthogonalEdgeStyle;rounded=0;orthogonalLoop=1;jettySize=auto;html=1;" edge="1" parent="1" source="olWBgKrgr_6ajbvYRlf9-14">
          <mxGeometry relative="1" as="geometry">
            <mxPoint x="-40" y="370" as="targetPoint" />
            <Array as="points">
              <mxPoint x="130" y="290" />
              <mxPoint x="130" y="430" />
              <mxPoint x="-40" y="430" />
            </Array>
          </mxGeometry>
        </mxCell>
        <mxCell id="olWBgKrgr_6ajbvYRlf9-14" value="Login&amp;nbsp;" style="rhombus;whiteSpace=wrap;html=1;" parent="1" vertex="1">
          <mxGeometry x="170" y="250" width="80" height="80" as="geometry" />
        </mxCell>
        <mxCell id="olWBgKrgr_6ajbvYRlf9-59" style="edgeStyle=orthogonalEdgeStyle;rounded=0;orthogonalLoop=1;jettySize=auto;html=1;entryX=1;entryY=0.5;entryDx=0;entryDy=0;" parent="1" source="olWBgKrgr_6ajbvYRlf9-16" target="olWBgKrgr_6ajbvYRlf9-52" edge="1">
          <mxGeometry relative="1" as="geometry">
            <Array as="points">
              <mxPoint x="1020" y="410" />
              <mxPoint x="1020" y="1280" />
            </Array>
          </mxGeometry>
        </mxCell>
        <mxCell id="olWBgKrgr_6ajbvYRlf9-16" value="Keluar" style="rhombus;whiteSpace=wrap;html=1;" parent="1" vertex="1">
          <mxGeometry x="330" y="370" width="80" height="80" as="geometry" />
        </mxCell>
        <mxCell id="olWBgKrgr_6ajbvYRlf9-24" value="" style="edgeStyle=orthogonalEdgeStyle;rounded=0;orthogonalLoop=1;jettySize=auto;html=1;" parent="1" source="olWBgKrgr_6ajbvYRlf9-21" target="olWBgKrgr_6ajbvYRlf9-23" edge="1">
          <mxGeometry relative="1" as="geometry" />
        </mxCell>
        <mxCell id="olWBgKrgr_6ajbvYRlf9-21" value="opsi" style="whiteSpace=wrap;html=1;" parent="1" vertex="1">
          <mxGeometry x="150" y="510" width="120" height="60" as="geometry" />
        </mxCell>
        <mxCell id="olWBgKrgr_6ajbvYRlf9-26" value="" style="edgeStyle=orthogonalEdgeStyle;rounded=0;orthogonalLoop=1;jettySize=auto;html=1;" parent="1" source="olWBgKrgr_6ajbvYRlf9-23" target="olWBgKrgr_6ajbvYRlf9-25" edge="1">
          <mxGeometry relative="1" as="geometry" />
        </mxCell>
        <mxCell id="oDXxkfqGSKGKiWghNTV8-13" value="true" style="edgeStyle=orthogonalEdgeStyle;rounded=0;orthogonalLoop=1;jettySize=auto;html=1;" edge="1" parent="1" source="olWBgKrgr_6ajbvYRlf9-23" target="oDXxkfqGSKGKiWghNTV8-11">
          <mxGeometry relative="1" as="geometry" />
        </mxCell>
        <mxCell id="olWBgKrgr_6ajbvYRlf9-23" value="pilih oshi" style="rhombus;whiteSpace=wrap;html=1;" parent="1" vertex="1">
          <mxGeometry x="170" y="610" width="80" height="80" as="geometry" />
        </mxCell>
        <mxCell id="olWBgKrgr_6ajbvYRlf9-28" value="" style="edgeStyle=orthogonalEdgeStyle;rounded=0;orthogonalLoop=1;jettySize=auto;html=1;" parent="1" source="olWBgKrgr_6ajbvYRlf9-25" target="olWBgKrgr_6ajbvYRlf9-27" edge="1">
          <mxGeometry relative="1" as="geometry" />
        </mxCell>
        <mxCell id="olWBgKrgr_6ajbvYRlf9-45" value="true" style="edgeStyle=orthogonalEdgeStyle;rounded=0;orthogonalLoop=1;jettySize=auto;html=1;" parent="1" source="olWBgKrgr_6ajbvYRlf9-25" target="olWBgKrgr_6ajbvYRlf9-44" edge="1">
          <mxGeometry relative="1" as="geometry" />
        </mxCell>
        <mxCell id="olWBgKrgr_6ajbvYRlf9-25" value="liat oshi" style="rhombus;whiteSpace=wrap;html=1;" parent="1" vertex="1">
          <mxGeometry x="360" y="730" width="80" height="80" as="geometry" />
        </mxCell>
        <mxCell id="olWBgKrgr_6ajbvYRlf9-30" value="" style="edgeStyle=orthogonalEdgeStyle;rounded=0;orthogonalLoop=1;jettySize=auto;html=1;" parent="1" source="olWBgKrgr_6ajbvYRlf9-27" target="olWBgKrgr_6ajbvYRlf9-29" edge="1">
          <mxGeometry relative="1" as="geometry" />
        </mxCell>
        <mxCell id="olWBgKrgr_6ajbvYRlf9-47" value="true" style="edgeStyle=orthogonalEdgeStyle;rounded=0;orthogonalLoop=1;jettySize=auto;html=1;" parent="1" source="olWBgKrgr_6ajbvYRlf9-27" target="olWBgKrgr_6ajbvYRlf9-46" edge="1">
          <mxGeometry relative="1" as="geometry" />
        </mxCell>
        <mxCell id="olWBgKrgr_6ajbvYRlf9-27" value="ganti oshi" style="rhombus;whiteSpace=wrap;html=1;" parent="1" vertex="1">
          <mxGeometry x="560" y="840" width="80" height="80" as="geometry" />
        </mxCell>
        <mxCell id="olWBgKrgr_6ajbvYRlf9-32" value="" style="edgeStyle=orthogonalEdgeStyle;rounded=0;orthogonalLoop=1;jettySize=auto;html=1;" parent="1" source="olWBgKrgr_6ajbvYRlf9-29" target="olWBgKrgr_6ajbvYRlf9-31" edge="1">
          <mxGeometry relative="1" as="geometry" />
        </mxCell>
        <mxCell id="olWBgKrgr_6ajbvYRlf9-51" value="true" style="edgeStyle=orthogonalEdgeStyle;rounded=0;orthogonalLoop=1;jettySize=auto;html=1;" parent="1" source="olWBgKrgr_6ajbvYRlf9-29" target="olWBgKrgr_6ajbvYRlf9-50" edge="1">
          <mxGeometry relative="1" as="geometry" />
        </mxCell>
        <mxCell id="olWBgKrgr_6ajbvYRlf9-29" value="hapus oshi" style="rhombus;whiteSpace=wrap;html=1;" parent="1" vertex="1">
          <mxGeometry x="750" y="930" width="80" height="80" as="geometry" />
        </mxCell>
        <mxCell id="olWBgKrgr_6ajbvYRlf9-54" style="edgeStyle=orthogonalEdgeStyle;rounded=0;orthogonalLoop=1;jettySize=auto;html=1;" parent="1" source="olWBgKrgr_6ajbvYRlf9-31" edge="1">
          <mxGeometry relative="1" as="geometry">
            <mxPoint x="930" y="1280" as="targetPoint" />
            <Array as="points">
              <mxPoint x="930" y="1270" />
              <mxPoint x="930" y="1270" />
            </Array>
          </mxGeometry>
        </mxCell>
        <mxCell id="olWBgKrgr_6ajbvYRlf9-31" value="keluar" style="rhombus;whiteSpace=wrap;html=1;" parent="1" vertex="1">
          <mxGeometry x="890" y="1040" width="80" height="80" as="geometry" />
        </mxCell>
        <mxCell id="olWBgKrgr_6ajbvYRlf9-55" style="edgeStyle=orthogonalEdgeStyle;rounded=0;orthogonalLoop=1;jettySize=auto;html=1;entryX=0;entryY=0.5;entryDx=0;entryDy=0;" parent="1" target="olWBgKrgr_6ajbvYRlf9-52" edge="1">
          <mxGeometry relative="1" as="geometry">
            <Array as="points">
              <mxPoint x="210" y="1280" />
            </Array>
            <mxPoint x="210" y="1050" as="sourcePoint" />
            <mxPoint x="500" y="1280" as="targetPoint" />
          </mxGeometry>
        </mxCell>
        <mxCell id="olWBgKrgr_6ajbvYRlf9-42" value="Output oshi" style="shape=parallelogram;perimeter=parallelogramPerimeter;whiteSpace=wrap;html=1;fixedSize=1;" parent="1" vertex="1">
          <mxGeometry x="150" y="990" width="120" height="60" as="geometry" />
        </mxCell>
        <mxCell id="olWBgKrgr_6ajbvYRlf9-56" style="edgeStyle=orthogonalEdgeStyle;rounded=0;orthogonalLoop=1;jettySize=auto;html=1;" parent="1" source="olWBgKrgr_6ajbvYRlf9-44" target="olWBgKrgr_6ajbvYRlf9-52" edge="1">
          <mxGeometry relative="1" as="geometry">
            <Array as="points">
              <mxPoint x="400" y="1200" />
              <mxPoint x="600" y="1200" />
            </Array>
          </mxGeometry>
        </mxCell>
        <mxCell id="olWBgKrgr_6ajbvYRlf9-44" value="Output list&lt;div&gt;oshi&lt;/div&gt;" style="shape=parallelogram;perimeter=parallelogramPerimeter;whiteSpace=wrap;html=1;fixedSize=1;" parent="1" vertex="1">
          <mxGeometry x="340" y="850" width="120" height="60" as="geometry" />
        </mxCell>
        <mxCell id="olWBgKrgr_6ajbvYRlf9-49" value="" style="edgeStyle=orthogonalEdgeStyle;rounded=0;orthogonalLoop=1;jettySize=auto;html=1;" parent="1" source="olWBgKrgr_6ajbvYRlf9-46" target="olWBgKrgr_6ajbvYRlf9-48" edge="1">
          <mxGeometry relative="1" as="geometry" />
        </mxCell>
        <mxCell id="olWBgKrgr_6ajbvYRlf9-46" value="pilih oshi yang&lt;div&gt;ingin di ganti&lt;/div&gt;" style="whiteSpace=wrap;html=1;" parent="1" vertex="1">
          <mxGeometry x="540" y="960" width="120" height="60" as="geometry" />
        </mxCell>
        <mxCell id="olWBgKrgr_6ajbvYRlf9-57" style="edgeStyle=orthogonalEdgeStyle;rounded=0;orthogonalLoop=1;jettySize=auto;html=1;" parent="1" source="olWBgKrgr_6ajbvYRlf9-48" edge="1">
          <mxGeometry relative="1" as="geometry">
            <mxPoint x="570" y="1250" as="targetPoint" />
            <Array as="points">
              <mxPoint x="600" y="1250" />
            </Array>
          </mxGeometry>
        </mxCell>
        <mxCell id="olWBgKrgr_6ajbvYRlf9-48" value="ganti oshi yang di&lt;div&gt;inginkan&lt;/div&gt;" style="whiteSpace=wrap;html=1;" parent="1" vertex="1">
          <mxGeometry x="540" y="1050" width="120" height="60" as="geometry" />
        </mxCell>
        <mxCell id="olWBgKrgr_6ajbvYRlf9-58" style="edgeStyle=orthogonalEdgeStyle;rounded=0;orthogonalLoop=1;jettySize=auto;html=1;" parent="1" source="olWBgKrgr_6ajbvYRlf9-50" target="olWBgKrgr_6ajbvYRlf9-52" edge="1">
          <mxGeometry relative="1" as="geometry">
            <Array as="points">
              <mxPoint x="790" y="1200" />
              <mxPoint x="600" y="1200" />
            </Array>
          </mxGeometry>
        </mxCell>
        <mxCell id="olWBgKrgr_6ajbvYRlf9-50" value="Hapus oshi yang di inginkan" style="whiteSpace=wrap;html=1;" parent="1" vertex="1">
          <mxGeometry x="730" y="1050" width="120" height="60" as="geometry" />
        </mxCell>
        <mxCell id="olWBgKrgr_6ajbvYRlf9-52" value="End" style="ellipse;whiteSpace=wrap;html=1;" parent="1" vertex="1">
          <mxGeometry x="550" y="1240" width="120" height="80" as="geometry" />
        </mxCell>
        <mxCell id="olWBgKrgr_6ajbvYRlf9-60" value="" style="endArrow=classic;html=1;rounded=0;" parent="1" edge="1">
          <mxGeometry width="50" height="50" relative="1" as="geometry">
            <mxPoint x="240" y="1040" as="sourcePoint" />
            <mxPoint x="300" y="1040" as="targetPoint" />
          </mxGeometry>
        </mxCell>
        <mxCell id="olWBgKrgr_6ajbvYRlf9-61" value="" style="endArrow=classic;html=1;rounded=0;" parent="1" edge="1">
          <mxGeometry width="50" height="50" relative="1" as="geometry">
            <mxPoint x="440" y="900" as="sourcePoint" />
            <mxPoint x="510" y="900" as="targetPoint" />
          </mxGeometry>
        </mxCell>
        <mxCell id="olWBgKrgr_6ajbvYRlf9-63" value="" style="endArrow=classic;html=1;rounded=0;" parent="1" edge="1">
          <mxGeometry width="50" height="50" relative="1" as="geometry">
            <mxPoint x="100" y="90" as="sourcePoint" />
            <mxPoint x="160" y="90" as="targetPoint" />
          </mxGeometry>
        </mxCell>
        <mxCell id="oDXxkfqGSKGKiWghNTV8-6" style="edgeStyle=orthogonalEdgeStyle;rounded=0;orthogonalLoop=1;jettySize=auto;html=1;" edge="1" parent="1">
          <mxGeometry relative="1" as="geometry">
            <mxPoint x="10" y="60" as="targetPoint" />
            <mxPoint x="60" y="310" as="sourcePoint" />
            <Array as="points">
              <mxPoint x="60" y="370" />
              <mxPoint x="-40" y="370" />
              <mxPoint x="-40" y="60" />
            </Array>
          </mxGeometry>
        </mxCell>
        <mxCell id="oDXxkfqGSKGKiWghNTV8-3" value="input :&lt;div&gt;Username&lt;/div&gt;&lt;div&gt;Password&lt;/div&gt;" style="shape=parallelogram;perimeter=parallelogramPerimeter;whiteSpace=wrap;html=1;fixedSize=1;" vertex="1" parent="1">
          <mxGeometry y="260" width="120" height="60" as="geometry" />
        </mxCell>
        <mxCell id="oDXxkfqGSKGKiWghNTV8-10" value="" style="edgeStyle=orthogonalEdgeStyle;rounded=0;orthogonalLoop=1;jettySize=auto;html=1;" edge="1" parent="1" source="oDXxkfqGSKGKiWghNTV8-8" target="olWBgKrgr_6ajbvYRlf9-21">
          <mxGeometry relative="1" as="geometry" />
        </mxCell>
        <mxCell id="oDXxkfqGSKGKiWghNTV8-18" value="true" style="edgeStyle=orthogonalEdgeStyle;rounded=0;orthogonalLoop=1;jettySize=auto;html=1;" edge="1" parent="1" source="oDXxkfqGSKGKiWghNTV8-8" target="olWBgKrgr_6ajbvYRlf9-14">
          <mxGeometry relative="1" as="geometry" />
        </mxCell>
        <mxCell id="oDXxkfqGSKGKiWghNTV8-8" value="input :&lt;div&gt;Username&lt;/div&gt;&lt;div&gt;Password&lt;/div&gt;" style="shape=parallelogram;perimeter=parallelogramPerimeter;whiteSpace=wrap;html=1;fixedSize=1;" vertex="1" parent="1">
          <mxGeometry x="150" y="380" width="120" height="60" as="geometry" />
        </mxCell>
        <mxCell id="oDXxkfqGSKGKiWghNTV8-14" value="" style="edgeStyle=orthogonalEdgeStyle;rounded=0;orthogonalLoop=1;jettySize=auto;html=1;" edge="1" parent="1" source="oDXxkfqGSKGKiWghNTV8-11" target="oDXxkfqGSKGKiWghNTV8-12">
          <mxGeometry relative="1" as="geometry" />
        </mxCell>
        <mxCell id="oDXxkfqGSKGKiWghNTV8-11" value="Pilih gen member" style="rounded=0;whiteSpace=wrap;html=1;" vertex="1" parent="1">
          <mxGeometry x="150" y="740" width="120" height="60" as="geometry" />
        </mxCell>
        <mxCell id="oDXxkfqGSKGKiWghNTV8-15" value="" style="edgeStyle=orthogonalEdgeStyle;rounded=0;orthogonalLoop=1;jettySize=auto;html=1;" edge="1" parent="1" source="oDXxkfqGSKGKiWghNTV8-12" target="olWBgKrgr_6ajbvYRlf9-42">
          <mxGeometry relative="1" as="geometry" />
        </mxCell>
        <mxCell id="oDXxkfqGSKGKiWghNTV8-12" value="Pilih member" style="rounded=0;whiteSpace=wrap;html=1;" vertex="1" parent="1">
          <mxGeometry x="150" y="850" width="120" height="60" as="geometry" />
        </mxCell>
      </root>
    </mxGraphModel>
  </diagram>
</mxfile>
